<svg fill="none" xmlns="http://www.w3.org/2000/svg" viewBox="0 0 152 23"><path d="m72.715 14.422 5.075-7.924V18h1.643V3.357h-1.498l-5.72 9.131-5.74-9.131h-1.498V18h1.643V6.498l5.075 7.924h1.02Zm14.037-7.155c-3.1 0-5.388 2.413-5.388 5.491 0 3.079 2.288 5.492 5.388 5.492 3.078 0 5.366-2.413 5.366-5.492 0-3.078-2.288-5.49-5.366-5.49Zm0 1.519c2.184 0 3.723 1.81 3.723 3.972 0 2.164-1.54 3.973-3.723 3.973-2.205 0-3.744-1.81-3.744-3.973s1.539-3.972 3.744-3.972Zm18.916 7.675c-.458.25-.978.312-1.269.312-1.144 0-1.809-.624-1.809-1.893V8.869h2.704V7.517h-2.704V4.626h-1.602v10.42c0 2.039 1.206 3.204 3.099 3.204.666 0 1.207-.125 1.581-.312V16.46Zm-10.15-8.944h-1.56V18h1.601v-5.325c0-2.371 1.31-3.806 3.245-3.806.146 0 .333 0 .437.02V7.33c-.125-.041-.375-.062-.583-.062-1.414 0-2.6.79-3.14 2.267V7.517Zm19.569 8.653v1.31c0 2.184-1.476 3.474-3.536 3.474-1.539 0-2.849-.645-3.681-1.685l-1.082 1.019c1.061 1.331 2.746 2.122 4.763 2.122 2.912 0 5.076-1.893 5.076-4.764V7.516h-1.602v1.79c-.624-1.186-2.163-2.039-3.702-2.039-2.788 0-4.992 2.33-4.992 5.491 0 3.162 2.204 5.492 4.992 5.492 1.56 0 3.14-.874 3.764-2.08Zm-3.515.603c-1.976 0-3.619-1.685-3.619-4.015 0-2.33 1.643-4.014 3.619-4.014 1.81 0 3.557 1.456 3.557 4.014 0 2.58-1.768 4.015-3.557 4.015Zm13.627-5.7v.5c-3.474-.27-6.885.478-6.885 3.619 0 1.81 1.435 3.058 3.349 3.058 1.581 0 2.891-.79 3.64-2.143V18h1.498v-6.802c0-2.433-1.623-3.93-4.16-3.93-1.81 0-3.162.769-4.056 1.83l.852 1.04c.687-.79 1.789-1.436 3.079-1.436 1.664 0 2.683.916 2.683 2.372Zm-3.307 5.804c-1.165 0-2.018-.707-2.018-1.768 0-1.851 1.914-2.371 3.911-2.371.499 0 .998.02 1.476.083v.77c0 1.643-1.456 3.286-3.369 3.286Zm15.338-.707v1.31c0 2.184-1.477 3.474-3.536 3.474-1.54 0-2.85-.645-3.682-1.685l-1.082 1.019c1.061 1.331 2.746 2.122 4.764 2.122 2.912 0 5.075-1.893 5.075-4.764V7.516h-1.602v1.79c-.624-1.186-2.163-2.039-3.702-2.039-2.787 0-4.992 2.33-4.992 5.491 0 3.162 2.205 5.492 4.992 5.492 1.56 0 3.141-.874 3.765-2.08Zm-3.516.603c-1.976 0-3.619-1.685-3.619-4.015 0-2.33 1.643-4.014 3.619-4.014 1.81 0 3.557 1.456 3.557 4.014 0 2.58-1.768 4.015-3.557 4.015Zm11.945-9.506c-3.078 0-5.262 2.413-5.262 5.491 0 3.1 2.184 5.492 5.512 5.492 1.705 0 3.078-.583 4.222-1.83l-.998-1.103a4.125 4.125 0 0 1-3.183 1.456c-2.059 0-3.681-1.373-3.869-3.557h8.279a6.99 6.99 0 0 0 .083-.998c0-2.746-1.851-4.95-4.784-4.95Zm0 1.456c1.768 0 3.162 1.207 3.224 3.141v.042h-6.781c.25-1.893 1.685-3.183 3.557-3.183Z" fill="#A4A8A4"/><path d="M50.33 17.804h3.543v-6.882c.33-1.038 1.875-2.01 4.104-1.524V6.026c-1.853 0-3.447 1.202-4.104 3.118V6.257H50.33v11.547Zm-5.768-9.259c1.079 0 1.618.577 1.618 1.132 0 .808-.657 1.618-4.316 2.031 0-1.894 1.22-3.163 2.698-3.163Zm4.526 8.196V13.67c-1.172.97-2.744 1.502-4.011 1.502-1.314 0-2.368-.692-2.886-1.8 4.643-.322 6.919-1.895 6.919-4.11 0-1.78-1.853-3.28-4.434-3.28-3.425 0-6.19 2.472-6.19 6.075 0 3.394 2.836 5.91 6.403 5.91 1.526-.002 3.073-.44 4.199-1.226Zm-13.18-2.516v-5.68h2.414V6.283l-2.415.024V3.536l-6.709 4.665V4.137l-5.605 4.156v.255h2.112v6.326c0 2.01 1.501 3.072 3.542 3.072.891 0 1.643-.161 2.322-.553v-2.38c-.33.185-.728.325-1.172.325-.75 0-1.196-.37-1.196-1.017V8.548h3.213v6.304c0 2.031 1.501 3.094 3.564 3.094.915 0 1.665-.116 2.392-.553v-2.401a2.528 2.528 0 0 1-1.242.346c-.752-.005-1.22-.397-1.22-1.113ZM18.81 8.545c1.08 0 1.62.577 1.62 1.132 0 .808-.658 1.618-4.317 2.031 0-1.894 1.218-3.163 2.698-3.163Zm4.527 8.196V13.67c-1.172.97-2.744 1.502-4.011 1.502-1.314 0-2.369-.692-2.886-1.8 4.643-.322 6.919-1.895 6.919-4.11 0-1.78-1.853-3.28-4.434-3.28-3.425 0-6.191 2.472-6.191 6.075 0 3.394 2.837 5.91 6.404 5.91 1.525-.002 3.073-.44 4.199-1.226ZM6.308 11.593c1.101 0 2.017.67 2.017 1.8 0 1.063-.916 1.71-2.017 1.71H3.635v-3.51h2.673Zm-.188-5.91c1.055 0 1.9.646 1.9 1.639 0 1.062-.845 1.709-1.9 1.709H3.635V5.682H6.12ZM0 3.002v14.8h7.082c2.72 0 4.856-1.639 4.856-4.133 0-1.594-1.033-2.863-2.534-3.464 1.36-.6 2.275-1.779 2.275-3.187C11.68 4.594 9.521 3 6.777 3H0v.002Z" fill="#017848"/></svg>