<svg width="32" height="32" viewBox="0 0 32 32" fill="none" xmlns="http://www.w3.org/2000/svg">
<mask id="path-1-outside-1_4080_8079" maskUnits="userSpaceOnUse" x="13.6094" y="14.3496" width="16" height="16" fill="black">
<rect fill="white" x="13.6094" y="14.3496" width="16" height="16"/>
<path d="M25.0547 20.5381C25.1066 20.5899 25.1478 20.6515 25.1759 20.7193C25.204 20.7871 25.2184 20.8597 25.2184 20.9331C25.2184 21.0065 25.204 21.0791 25.1759 21.1469C25.1478 21.2147 25.1066 21.2763 25.0547 21.3281L21.1462 25.2366C21.0944 25.2885 21.0328 25.3297 20.965 25.3578C20.8972 25.3859 20.8246 25.4003 20.7512 25.4003C20.6778 25.4003 20.6052 25.3859 20.5374 25.3578C20.4696 25.3297 20.408 25.2885 20.3562 25.2366L18.6811 23.5615C18.5764 23.4567 18.5175 23.3147 18.5175 23.1665C18.5175 23.0183 18.5764 22.8762 18.6811 22.7715C18.7859 22.6667 18.928 22.6078 19.0762 22.6078C19.2243 22.6078 19.3664 22.6667 19.4712 22.7715L20.7512 24.0522L24.2646 20.5381C24.3165 20.4861 24.3781 20.445 24.4458 20.4169C24.5136 20.3888 24.5863 20.3743 24.6596 20.3743C24.733 20.3743 24.8057 20.3888 24.8735 20.4169C24.9412 20.445 25.0028 20.4861 25.0547 20.5381ZM29.1264 22.6081C29.1264 24.0437 28.7007 25.4471 27.9032 26.6408C27.1056 27.8344 25.9719 28.7648 24.6456 29.3141C23.3193 29.8635 21.8599 30.0073 20.4518 29.7272C19.0438 29.4471 17.7505 28.7558 16.7354 27.7407C15.7202 26.7256 15.0289 25.4322 14.7488 24.0242C14.4688 22.6162 14.6125 21.1567 15.1619 19.8304C15.7113 18.5041 16.6416 17.3705 17.8353 16.5729C19.0289 15.7753 20.4323 15.3496 21.8679 15.3496C23.7924 15.3516 25.6374 16.117 26.9982 17.4778C28.359 18.8386 29.1244 20.6837 29.1264 22.6081ZM28.0097 22.6081C28.0097 21.3934 27.6495 20.2059 26.9747 19.1959C26.2998 18.1859 25.3406 17.3987 24.2183 16.9338C23.096 16.469 21.8611 16.3473 20.6697 16.5843C19.4783 16.8213 18.3839 17.4063 17.525 18.2652C16.666 19.1242 16.0811 20.2185 15.8441 21.4099C15.6071 22.6013 15.7287 23.8362 16.1936 24.9585C16.6585 26.0808 17.4457 27.04 18.4557 27.7149C19.4657 28.3898 20.6532 28.75 21.8679 28.75C23.4963 28.7481 25.0574 28.1004 26.2088 26.949C27.3602 25.7976 28.0079 24.2365 28.0097 22.6081Z"/>
</mask>
<path d="M25.0547 20.5381C25.1066 20.5899 25.1478 20.6515 25.1759 20.7193C25.204 20.7871 25.2184 20.8597 25.2184 20.9331C25.2184 21.0065 25.204 21.0791 25.1759 21.1469C25.1478 21.2147 25.1066 21.2763 25.0547 21.3281L21.1462 25.2366C21.0944 25.2885 21.0328 25.3297 20.965 25.3578C20.8972 25.3859 20.8246 25.4003 20.7512 25.4003C20.6778 25.4003 20.6052 25.3859 20.5374 25.3578C20.4696 25.3297 20.408 25.2885 20.3562 25.2366L18.6811 23.5615C18.5764 23.4567 18.5175 23.3147 18.5175 23.1665C18.5175 23.0183 18.5764 22.8762 18.6811 22.7715C18.7859 22.6667 18.928 22.6078 19.0762 22.6078C19.2243 22.6078 19.3664 22.6667 19.4712 22.7715L20.7512 24.0522L24.2646 20.5381C24.3165 20.4861 24.3781 20.445 24.4458 20.4169C24.5136 20.3888 24.5863 20.3743 24.6596 20.3743C24.733 20.3743 24.8057 20.3888 24.8735 20.4169C24.9412 20.445 25.0028 20.4861 25.0547 20.5381ZM29.1264 22.6081C29.1264 24.0437 28.7007 25.4471 27.9032 26.6408C27.1056 27.8344 25.9719 28.7648 24.6456 29.3141C23.3193 29.8635 21.8599 30.0073 20.4518 29.7272C19.0438 29.4471 17.7505 28.7558 16.7354 27.7407C15.7202 26.7256 15.0289 25.4322 14.7488 24.0242C14.4688 22.6162 14.6125 21.1567 15.1619 19.8304C15.7113 18.5041 16.6416 17.3705 17.8353 16.5729C19.0289 15.7753 20.4323 15.3496 21.8679 15.3496C23.7924 15.3516 25.6374 16.117 26.9982 17.4778C28.359 18.8386 29.1244 20.6837 29.1264 22.6081ZM28.0097 22.6081C28.0097 21.3934 27.6495 20.2059 26.9747 19.1959C26.2998 18.1859 25.3406 17.3987 24.2183 16.9338C23.096 16.469 21.8611 16.3473 20.6697 16.5843C19.4783 16.8213 18.3839 17.4063 17.525 18.2652C16.666 19.1242 16.0811 20.2185 15.8441 21.4099C15.6071 22.6013 15.7287 23.8362 16.1936 24.9585C16.6585 26.0808 17.4457 27.04 18.4557 27.7149C19.4657 28.3898 20.6532 28.75 21.8679 28.75C23.4963 28.7481 25.0574 28.1004 26.2088 26.949C27.3602 25.7976 28.0079 24.2365 28.0097 22.6081Z" fill="#017848"/>
<path d="M25.0547 20.5381C25.1066 20.5899 25.1478 20.6515 25.1759 20.7193C25.204 20.7871 25.2184 20.8597 25.2184 20.9331C25.2184 21.0065 25.204 21.0791 25.1759 21.1469C25.1478 21.2147 25.1066 21.2763 25.0547 21.3281L21.1462 25.2366C21.0944 25.2885 21.0328 25.3297 20.965 25.3578C20.8972 25.3859 20.8246 25.4003 20.7512 25.4003C20.6778 25.4003 20.6052 25.3859 20.5374 25.3578C20.4696 25.3297 20.408 25.2885 20.3562 25.2366L18.6811 23.5615C18.5764 23.4567 18.5175 23.3147 18.5175 23.1665C18.5175 23.0183 18.5764 22.8762 18.6811 22.7715C18.7859 22.6667 18.928 22.6078 19.0762 22.6078C19.2243 22.6078 19.3664 22.6667 19.4712 22.7715L20.7512 24.0522L24.2646 20.5381C24.3165 20.4861 24.3781 20.445 24.4458 20.4169C24.5136 20.3888 24.5863 20.3743 24.6596 20.3743C24.733 20.3743 24.8057 20.3888 24.8735 20.4169C24.9412 20.445 25.0028 20.4861 25.0547 20.5381ZM29.1264 22.6081C29.1264 24.0437 28.7007 25.4471 27.9032 26.6408C27.1056 27.8344 25.9719 28.7648 24.6456 29.3141C23.3193 29.8635 21.8599 30.0073 20.4518 29.7272C19.0438 29.4471 17.7505 28.7558 16.7354 27.7407C15.7202 26.7256 15.0289 25.4322 14.7488 24.0242C14.4688 22.6162 14.6125 21.1567 15.1619 19.8304C15.7113 18.5041 16.6416 17.3705 17.8353 16.5729C19.0289 15.7753 20.4323 15.3496 21.8679 15.3496C23.7924 15.3516 25.6374 16.117 26.9982 17.4778C28.359 18.8386 29.1244 20.6837 29.1264 22.6081ZM28.0097 22.6081C28.0097 21.3934 27.6495 20.2059 26.9747 19.1959C26.2998 18.1859 25.3406 17.3987 24.2183 16.9338C23.096 16.469 21.8611 16.3473 20.6697 16.5843C19.4783 16.8213 18.3839 17.4063 17.525 18.2652C16.666 19.1242 16.0811 20.2185 15.8441 21.4099C15.6071 22.6013 15.7287 23.8362 16.1936 24.9585C16.6585 26.0808 17.4457 27.04 18.4557 27.7149C19.4657 28.3898 20.6532 28.75 21.8679 28.75C23.4963 28.7481 25.0574 28.1004 26.2088 26.949C27.3602 25.7976 28.0079 24.2365 28.0097 22.6081Z" stroke="#017848" stroke-width="0.483902" mask="url(#path-1-outside-1_4080_8079)"/>
<path fill-rule="evenodd" clip-rule="evenodd" d="M5.33358 1.98243L5.2897 1.98243C4.94769 1.98236 4.61531 1.9823 4.34117 2.01915C4.03211 2.0607 3.67945 2.16194 3.38651 2.45487C3.09358 2.74781 2.99234 3.10047 2.95079 3.40952C2.91394 3.68367 2.914 4.01605 2.91407 4.35806L2.91407 4.40194V22.6417L2.91407 22.6856C2.914 23.0276 2.91394 23.36 2.95079 23.6342C2.99234 23.9432 3.09358 24.2959 3.38651 24.5888C3.67945 24.8817 4.03211 24.983 4.34117 25.0245C4.61529 25.0614 4.94766 25.0613 5.28965 25.0612H5.2897L5.33358 25.0612H13.4285H13.6503V23.4482H13.4285H5.33358C4.93059 23.4482 4.70949 23.4465 4.55609 23.4259L4.55022 23.4251L4.54942 23.4192C4.52879 23.2658 4.52708 23.0447 4.52708 22.6417V4.40194C4.52708 3.99895 4.52879 3.77784 4.54942 3.62445L4.55022 3.61858L4.55609 3.61778C4.70949 3.59715 4.93059 3.59544 5.33358 3.59544H21.5233C21.9263 3.59544 22.1474 3.59715 22.3008 3.61778L22.3067 3.61858L22.3075 3.62445C22.3281 3.77784 22.3298 3.99895 22.3298 4.40194V13.0995H23.9429V4.40194L23.9429 4.35806C23.9429 4.01605 23.943 3.68367 23.9061 3.40952C23.8646 3.10047 23.7633 2.74781 23.4704 2.45487C23.1775 2.16194 22.8248 2.0607 22.5158 2.01915C22.2416 1.9823 21.9092 1.98236 21.5672 1.98243L21.5233 1.98243H5.33358Z" fill="#017848"/>
<path d="M7.5 8H18.5" stroke="#017848" stroke-width="1.61301" stroke-linecap="round"/>
<path d="M7.5 12.0327H18.5" stroke="#017848" stroke-width="1.61301" stroke-linecap="round"/>
<path d="M7.5 16.0649H14.5" stroke="#017848" stroke-width="1.61301" stroke-linecap="round"/>
</svg>
