<svg width="32" height="32" viewBox="0 0 32 32" fill="none" xmlns="http://www.w3.org/2000/svg">
<path d="M30.0006 25V17C30.0006 16.7348 29.8952 16.4804 29.7077 16.2929C29.5201 16.1054 29.2658 16 29.0006 16C28.7353 16 28.481 16.1054 28.2934 16.2929C28.1059 16.4804 28.0006 16.7348 28.0006 17V22.5863L17.7081 12.2925C17.6152 12.1995 17.5049 12.1258 17.3835 12.0754C17.2621 12.0251 17.132 11.9992 17.0006 11.9992C16.8691 11.9992 16.739 12.0251 16.6176 12.0754C16.4962 12.1258 16.3859 12.1995 16.2931 12.2925L12.0006 16.5863L3.70806 8.2925C3.52042 8.10486 3.26592 7.99944 3.00056 7.99944C2.73519 7.99944 2.4807 8.10486 2.29306 8.2925C2.10542 8.48014 2 8.73464 2 9C2 9.26536 2.10542 9.51986 2.29306 9.7075L11.2931 18.7075C11.3859 18.8005 11.4962 18.8742 11.6176 18.9246C11.739 18.9749 11.8691 19.0008 12.0006 19.0008C12.132 19.0008 12.2621 18.9749 12.3835 18.9246C12.5049 18.8742 12.6152 18.8005 12.7081 18.7075L17.0006 14.4137L26.5868 24H21.0006C20.7353 24 20.481 24.1054 20.2934 24.2929C20.1059 24.4804 20.0006 24.7348 20.0006 25C20.0006 25.2652 20.1059 25.5196 20.2934 25.7071C20.481 25.8946 20.7353 26 21.0006 26H29.0006C29.2658 26 29.5201 25.8946 29.7077 25.7071C29.8952 25.5196 30.0006 25.2652 30.0006 25Z" fill="#017848"/>
</svg>
